# xmcd
# 
# Track frame offsets:
#     150
#     14592
#     31249
#     50782
#     66119
#     83821
#     102250
#     120704
#     140241
#     158941
#     176645
#     196248
# 
# Disc length: 2819
# 
# Revision: 0
# Processed by: cddbd v1.5.2PL0 Copyright (c) Steve Scherf et al.
# Submitted via: fre:ac v1.0.31
# 
DISCID=aa0b010c
DTITLE=A応P - A応P
DYEAR=2016
DGENRE=JPop
TTITLE0=はなまるぴっぴはよいこだけ
TTITLE1=未来へつなげ（A応P Version）
TTITLE2=Never Say Never
TTITLE3=Stay Gold
TTITLE4=青春セッションPARADISE
TTITLE5=MISSION→
TTITLE6=Happy Lucky Rainbow
TTITLE7=COSMIC MAGIC STARS
TTITLE8=全力バタンキュー
TTITLE9=Beyond The Games
TTITLE10=乙女はこの夏パッションを知る
TTITLE11=アリノママMY WAY
EXTD=
EXTT0=
EXTT1=
EXTT2=
EXTT3=
EXTT4=
EXTT5=
EXTT6=
EXTT7=
EXTT8=
EXTT9=
EXTT10=
EXTT11=
PLAYORDER=
